<?xml version="1.0" encoding="UTF-8"?><svg id="uuid-7bcfb507-513e-4166-9d76-bd576dcb7d77" xmlns="http://www.w3.org/2000/svg" viewBox="0 0 40 40"><defs><style>.uuid-3d3742cb-05a9-4053-a08c-b93d94e7185d{fill:#fff;}</style></defs><g id="uuid-3dc496ea-445d-4247-9e9b-e4ae8a418516"><path class="uuid-3d3742cb-05a9-4053-a08c-b93d94e7185d" d="M18.75,0c.83,0,1.67,0,2.5,0,.1,.02,.2,.06,.3,.06,3,.23,5.83,1.07,8.42,2.61,5.32,3.16,8.58,7.79,9.73,13.88,.14,.73,.21,1.46,.31,2.2v2.5c-.02,.1-.06,.2-.06,.3-.26,3.43-1.32,6.6-3.24,9.45-3.19,4.73-7.59,7.64-13.21,8.69-.74,.14-1.49,.21-2.23,.31h-2.5c-.1-.02-.2-.06-.3-.06-3.98-.32-7.57-1.68-10.71-4.15C3.7,32.61,1.2,28.48,.3,23.41c-.13-.71-.2-1.44-.3-2.16,0-.83,0-1.67,0-2.5,.03-.26,.07-.51,.09-.77,.47-4.32,2.13-8.13,5.05-11.35C8.23,3.22,12.05,1.09,16.59,.3c.71-.12,1.44-.2,2.16-.3Zm10,25.56c.71,0,1.38,0,2.06,0,.67,0,.91-.25,.91-.92,0-3.09,0-6.17,0-9.26,0-.7-.24-.94-.94-.94-7.19,0-14.37,0-21.56,0-.7,0-.94,.24-.94,.94,0,1.81,0,3.62,0,5.43,0,1.3,0,2.6,0,3.91,0,.57,.27,.84,.83,.85,.3,0,.6,0,.9,0,.8,0,1.61,0,2.46,0,0-.18,0-.32,0-.46,0-.87,0-1.74,0-2.62,0-.83,.26-1.09,1.1-1.09,4.67,0,9.35,0,14.02,0,.91,0,1.15,.25,1.15,1.16,0,.99,0,1.97,0,3Zm-1.7-2.48H14.16v8.61h12.88v-8.61Zm.03-10.35c0-.61,.02-1.18-.01-1.75-.01-.2-.1-.43-.23-.57-.6-.63-1.23-1.23-1.84-1.86-.19-.19-.37-.27-.64-.27-3.27,0-6.53,0-9.8,0-.13,0-.25,.01-.38,.02v4.44h12.91Z"/></g></svg>