<?xml version="1.0" encoding="UTF-8"?><svg id="uuid-85eb82d9-dcf1-444e-8eb6-6fa9f6e37fa1" xmlns="http://www.w3.org/2000/svg" viewBox="0 0 40 40"><defs><style>.uuid-e07aed1e-8a75-45ff-8b36-299d28456fe3{fill:#a9c945;}</style></defs><g id="uuid-658c1699-b6ae-48b6-9d5f-12ee8418c6fd"><path class="uuid-e07aed1e-8a75-45ff-8b36-299d28456fe3" d="M20.01,0c10.97,0,19.88,8.87,19.99,19.75,.11,11.28-8.86,20-19.48,20.24C9.04,40.26,.23,31.18,0,20.46-.24,8.99,9.02-.03,20.01,0Zm-2.77,21.54c0,.25,0,.44,0,.62,0,3.73,0,7.46,0,11.19,0,.38,.11,.51,.49,.5,1.26-.02,2.53-.03,3.79,0,.49,.01,.59-.16,.59-.61-.02-3.68,0-7.37,0-11.05,0-.2,0-.39,0-.65,.24,0,.42,0,.6,0,1.28,0,2.56-.01,3.84,0,.39,0,.5-.13,.49-.5-.02-1.08,0-2.16,0-3.24,0-.15-.01-.29-.02-.49h-4.85c0-1.1-.05-2.17,.02-3.22,.04-.67,.32-.87,.99-.89,1.15-.04,2.31-.06,3.47-.07,.3,0,.41-.1,.4-.4-.01-1.23-.01-2.47,0-3.7,0-.32-.13-.4-.41-.39-.66,.01-1.33,0-1.99,.01-.91,.03-1.84-.04-2.72,.14-2.42,.5-3.87,2.12-4.43,4.44-.27,1.12-.17,2.32-.23,3.49-.01,.19,0,.38,0,.62h-4.26c0,1.23,.02,2.42-.01,3.6-.01,.48,.13,.6,.59,.59,1.2-.03,2.4-.01,3.67-.01Z"/></g></svg>