<?xml version="1.0" encoding="UTF-8"?><svg id="uuid-a633da03-634c-46be-b8bd-4649084d9e1f" xmlns="http://www.w3.org/2000/svg" viewBox="0 0 41.43 20.79"><defs><style>.uuid-3b6b3750-2e5b-43f7-a68d-f699ff908f7c{fill:#a9c945;}</style></defs><g id="uuid-e09d9a4b-baa7-4edd-b187-37451ee9d0e2"><path class="uuid-3b6b3750-2e5b-43f7-a68d-f699ff908f7c" d="M0,10.23c.21-.66,.72-.79,1.33-.79,12.08,0,24.17,0,36.25,0h.6c-.17-.19-.28-.3-.38-.41-2.39-2.4-4.78-4.79-7.18-7.19-.08-.08-.16-.15-.23-.23-.39-.43-.4-.97-.03-1.34,.36-.37,.9-.37,1.34,.01,.09,.08,.18,.17,.26,.25,2.99,2.98,5.97,5.97,8.96,8.95,.67,.67,.67,1.12,.01,1.78-3.03,3.03-6.06,6.07-9.1,9.1-.49,.49-1.01,.55-1.43,.18-.35-.31-.42-.82-.15-1.2,.12-.16,.26-.31,.4-.45,2.38-2.39,4.77-4.77,7.15-7.15,.1-.1,.2-.21,.38-.4-.26,0-.43,0-.59,0-12.1,0-24.19,0-36.29,0-.59,0-1.06-.14-1.31-.71v-.4Z"/></g></svg>