<?xml version="1.0" encoding="UTF-8"?><svg id="uuid-6d7b8baa-e604-4837-ad62-4d5d90f1819f" xmlns="http://www.w3.org/2000/svg" viewBox="0 0 40 40"><defs><style>.uuid-76781669-d089-4655-98d9-7593a4ced4f0{fill:#fff;}.uuid-3c7ab6f4-0c6f-4fb3-831c-81aa282db4e6{fill:#a9c945;}</style></defs><g id="uuid-d94858a8-538a-4765-8bbe-c193168e3885"><g><path class="uuid-3c7ab6f4-0c6f-4fb3-831c-81aa282db4e6" d="M0,21.25C0,20.42,0,19.58,0,18.75c.03-.26,.07-.51,.09-.77,.47-4.32,2.13-8.13,5.05-11.35C8.23,3.22,12.05,1.09,16.59,.3c.71-.12,1.44-.2,2.16-.3,.83,0,1.67,0,2.5,0,.1,.02,.2,.06,.3,.06,3.11,.23,6.03,1.13,8.69,2.76,5.16,3.18,8.34,7.75,9.46,13.73,.14,.73,.21,1.46,.31,2.2v2.5c-.06,.48-.11,.95-.18,1.43-.56,4-2.16,7.53-4.84,10.55-3.09,3.47-6.93,5.64-11.51,6.46-.74,.13-1.49,.21-2.23,.31h-2.5c-.49-.06-.98-.11-1.46-.18-3.69-.52-7-1.93-9.88-4.3-3.82-3.14-6.2-7.15-7.09-12.03C.18,22.75,.1,22,0,21.25Zm20,11.76c.15-.16,.28-.29,.39-.43,1.48-1.8,3-3.57,4.42-5.41,1.59-2.06,3.03-4.23,4.11-6.61,.71-1.56,1.19-3.17,.91-4.91-.62-3.89-2.72-6.66-6.41-8.02-3.67-1.35-7.08-.65-10.04,1.92-2.59,2.25-4.51,6.65-2.31,11.03,.97,1.94,2.08,3.78,3.34,5.54,1.71,2.4,3.58,4.67,5.59,6.89Z"/><path class="uuid-76781669-d089-4655-98d9-7593a4ced4f0" d="M20,33.01c-2.02-2.23-3.88-4.5-5.59-6.89-1.26-1.76-2.37-3.6-3.34-5.54-2.2-4.38-.28-8.78,2.31-11.03,2.96-2.57,6.38-3.27,10.04-1.92,3.69,1.36,5.79,4.14,6.41,8.02,.28,1.74-.19,3.35-.91,4.91-1.09,2.38-2.52,4.55-4.11,6.61-1.42,1.84-2.94,3.61-4.42,5.41-.11,.14-.24,.26-.39,.43Zm-3.75-16.32c-.01,2.07,1.65,3.77,3.71,3.79,2.08,.02,3.78-1.64,3.8-3.7,.02-2.1-1.64-3.8-3.73-3.81-2.08,0-3.76,1.65-3.78,3.72Z"/><path class="uuid-3c7ab6f4-0c6f-4fb3-831c-81aa282db4e6" d="M16.25,16.68c.01-2.06,1.7-3.72,3.78-3.72,2.08,0,3.75,1.71,3.73,3.81-.02,2.06-1.72,3.72-3.8,3.7-2.06-.02-3.72-1.71-3.71-3.79Z"/></g></g></svg>