<?xml version="1.0" encoding="UTF-8"?><svg id="uuid-ea829478-48e6-4f29-a43b-a098ff320008" xmlns="http://www.w3.org/2000/svg" viewBox="0 0 40 40"><defs><style>.uuid-1087e8ad-b57f-4bba-990b-5c268213e53a{fill:#fff;}</style></defs><g id="uuid-93442df1-59d7-4c63-82f4-27d2f3f92b50"><g><path class="uuid-1087e8ad-b57f-4bba-990b-5c268213e53a" d="M39.69,16.55c-1.11-5.98-4.29-10.55-9.46-13.73C27.58,1.19,24.66,.3,21.55,.06c-.1,0-.2-.04-.3-.06h-2.5c-.72,.1-1.44,.18-2.16,.3-4.55,.79-8.37,2.92-11.45,6.33C2.22,9.85,.57,13.66,.09,17.98c-.03,.26-.06,.51-.09,.77v2.5c.1,.75,.18,1.5,.31,2.23,.89,4.88,3.27,8.89,7.09,12.03,2.88,2.37,6.19,3.77,9.88,4.3,.49,.07,.98,.12,1.46,.18h2.5c.74-.1,1.49-.18,2.23-.31,4.58-.83,8.42-2.99,11.51-6.46,2.68-3.02,4.27-6.55,4.84-10.55,.07-.47,.12-.95,.18-1.43v-2.5c-.1-.73-.17-1.47-.31-2.2Zm-10.77,4.01c-1.09,2.38-2.52,4.55-4.11,6.61-1.42,1.84-2.94,3.61-4.42,5.41-.11,.14-.24,.27-.39,.43-2.02-2.23-3.88-4.5-5.59-6.89-1.26-1.76-2.37-3.6-3.34-5.54-2.2-4.38-.28-8.78,2.31-11.03,2.96-2.57,6.38-3.27,10.04-1.92,3.69,1.36,5.79,4.14,6.41,8.02,.28,1.74-.19,3.35-.91,4.91Z"/><path class="uuid-1087e8ad-b57f-4bba-990b-5c268213e53a" d="M20.03,12.97c-2.08,0-3.76,1.65-3.78,3.72-.01,2.07,1.65,3.77,3.71,3.79,2.08,.02,3.78-1.64,3.8-3.7,.02-2.1-1.64-3.8-3.73-3.81Z"/></g></g></svg>