<?xml version="1.0" encoding="UTF-8"?><svg id="uuid-d25c9d41-a1dd-4402-9da5-eb20d76c3689" xmlns="http://www.w3.org/2000/svg" viewBox="0 0 40 40"><defs><style>.uuid-a813e334-4680-4a4a-b783-e7af0f5c5cdf{fill:#fff;}.uuid-406180b7-2736-45da-8b7a-c828387613ac{fill:#a9c945;}</style></defs><g id="uuid-f5d22bfa-41a1-43b7-b114-163bdb63e758"><g><path class="uuid-406180b7-2736-45da-8b7a-c828387613ac" d="M0,21.18c0-.78,0-1.56,0-2.34,.02-.14,.05-.27,.07-.41,.1-.72,.15-1.45,.29-2.16,.84-4.37,2.92-8.07,6.21-11.06C9.43,2.59,12.78,.96,16.6,.31c.74-.13,1.49-.2,2.24-.31,.78,0,1.56,0,2.34,0,.52,.06,1.03,.11,1.55,.18,4.69,.69,8.7,2.7,11.91,6.2,4.23,4.62,5.97,10.08,5.18,16.29-.6,4.71-2.68,8.74-6.19,11.95-4.94,4.52-10.78,6.18-17.37,5.01-4.38-.78-8.07-2.91-11.07-6.2C2.59,30.58,.95,27.23,.3,23.41,.18,22.67,.1,21.92,0,21.18Zm25.29,9.28c.88,0,1.68-.16,2.46-.51,.96-.44,1.66-1.2,2.39-1.92,.54-.54,.54-.96,0-1.51-1.15-1.15-2.3-2.31-3.45-3.45-.53-.53-.97-.53-1.51,.01-.63,.64-1.26,1.28-1.89,1.92-.74,.74-1.65,.8-2.51,.19-2.24-1.6-4.19-3.5-5.84-5.71-.7-.94-.65-1.82,.18-2.65,.65-.66,1.31-1.3,1.96-1.96,.47-.48,.48-.92,.01-1.4-1.18-1.19-2.37-2.38-3.56-3.56-.46-.45-.9-.45-1.37,0-.39,.37-.76,.75-1.13,1.13-1.2,1.26-1.74,2.75-1.5,4.49,.17,1.24,.69,2.37,1.27,3.46,2.43,4.58,5.98,8.03,10.64,10.31,1.22,.6,2.51,1.08,3.86,1.18Z"/><path class="uuid-a813e334-4680-4a4a-b783-e7af0f5c5cdf" d="M25.29,30.45c-1.35-.09-2.64-.58-3.86-1.18-4.66-2.28-8.2-5.73-10.64-10.31-.58-1.09-1.09-2.22-1.27-3.46-.24-1.74,.31-3.23,1.5-4.49,.37-.39,.74-.77,1.13-1.13,.46-.44,.91-.44,1.37,0,1.19,1.18,2.38,2.37,3.56,3.56,.47,.47,.46,.92-.01,1.4-.65,.66-1.31,1.31-1.96,1.96-.83,.83-.88,1.71-.18,2.65,1.65,2.21,3.59,4.11,5.84,5.71,.85,.61,1.76,.55,2.51-.19,.64-.63,1.26-1.28,1.89-1.92,.53-.54,.97-.54,1.51-.01,1.15,1.15,2.3,2.3,3.45,3.45,.54,.54,.54,.97,0,1.51-.73,.72-1.42,1.49-2.39,1.92-.77,.35-1.58,.51-2.46,.51Z"/></g></g></svg>