<?xml version="1.0" encoding="UTF-8"?><svg id="uuid-a0369920-df27-4d07-ad7f-7c6df387ba11" xmlns="http://www.w3.org/2000/svg" viewBox="0 0 40 40"><defs><style>.uuid-4415c050-a454-403a-b833-c9d07bbea313{fill:#fff;}</style></defs><g id="uuid-3bb7c7a7-3ad1-45ab-9197-a7f43cc41371"><path class="uuid-4415c050-a454-403a-b833-c9d07bbea313" d="M34.63,6.38C31.43,2.89,27.41,.87,22.72,.18c-.51-.07-1.03-.12-1.55-.18h-2.34c-.75,.1-1.49,.18-2.24,.31-3.82,.65-7.17,2.28-10.03,4.89C3.28,8.19,1.21,11.88,.36,16.26c-.14,.71-.2,1.44-.29,2.16-.02,.14-.05,.28-.07,.41v2.34c.1,.74,.18,1.49,.3,2.23,.65,3.82,2.28,7.17,4.89,10.03,3,3.29,6.68,5.42,11.07,6.2,6.59,1.17,12.42-.49,17.37-5.01,3.51-3.21,5.58-7.24,6.19-11.95,.79-6.21-.95-11.68-5.18-16.29Zm-4.5,21.64c-.73,.72-1.42,1.49-2.39,1.92-.77,.35-1.58,.51-2.46,.51-1.35-.09-2.64-.58-3.86-1.18-4.66-2.28-8.2-5.73-10.64-10.31-.58-1.09-1.09-2.22-1.27-3.46-.24-1.74,.31-3.23,1.5-4.49,.37-.39,.74-.77,1.13-1.13,.46-.44,.91-.44,1.37,0,1.19,1.18,2.38,2.37,3.56,3.56,.47,.47,.46,.92-.01,1.4-.65,.66-1.31,1.31-1.96,1.96-.83,.83-.88,1.71-.18,2.65,1.65,2.21,3.59,4.11,5.84,5.71,.85,.61,1.76,.55,2.51-.19,.64-.63,1.26-1.28,1.89-1.92,.53-.54,.97-.54,1.51-.01,1.15,1.15,2.3,2.3,3.45,3.45,.54,.54,.54,.97,0,1.51Z"/></g></svg>