<?xml version="1.0" encoding="UTF-8"?><svg id="uuid-b7ec4201-05a4-4421-a870-e71eab2b3294" xmlns="http://www.w3.org/2000/svg" viewBox="0 0 76 76.01"><defs><style>.uuid-42ce243e-d617-4ac9-84cc-47b7680aec91{fill:#a9c945;}.uuid-4c5bc1f8-a3ec-4f15-8dcf-47a5e1d15b56{fill:#fff;stroke:#a9c945;stroke-miterlimit:10;}</style></defs><g id="uuid-ee88c6c6-39ab-4eb6-bd66-0855bc161d3c"><g><path class="uuid-4c5bc1f8-a3ec-4f15-8dcf-47a5e1d15b56" d="M.5,40.21c0-1.47,0-2.93,0-4.4,.04-.26,.1-.52,.13-.78,.18-1.35,.29-2.72,.55-4.06,1.58-8.2,5.47-15.13,11.64-20.74C18.18,5.36,24.46,2.29,31.62,1.07c1.39-.24,2.79-.38,4.19-.57,1.47,0,2.93,0,4.4,0,.97,.11,1.94,.21,2.9,.35,8.79,1.28,16.32,5.07,22.33,11.62,7.93,8.65,11.2,18.91,9.72,30.55-1.13,8.83-5.02,16.39-11.6,22.41-9.27,8.48-20.21,11.59-32.56,9.4-8.22-1.46-15.14-5.45-20.75-11.62-4.89-5.36-7.95-11.65-9.17-18.81-.24-1.39-.38-2.79-.57-4.19Z"/><path class="uuid-42ce243e-d617-4ac9-84cc-47b7680aec91" d="M47.91,55.75c1.65,0,3.16-.3,4.61-.96,1.81-.82,3.11-2.25,4.47-3.61,1.01-1.01,1.02-1.81,0-2.82-2.15-2.16-4.31-4.32-6.47-6.48-1-1-1.83-.99-2.83,.02-1.19,1.19-2.36,2.41-3.55,3.59-1.39,1.38-3.1,1.5-4.7,.36-4.2-3-7.85-6.57-10.94-10.71-1.32-1.77-1.21-3.41,.34-4.97,1.22-1.23,2.46-2.44,3.67-3.68,.88-.9,.9-1.73,.02-2.62-2.22-2.24-4.44-4.46-6.68-6.68-.86-.85-1.7-.85-2.57-.02-.72,.69-1.43,1.4-2.12,2.13-2.24,2.37-3.27,5.16-2.82,8.43,.32,2.33,1.29,4.45,2.37,6.49,4.56,8.58,11.2,15.06,19.94,19.32,2.3,1.12,4.7,2.03,7.24,2.21Z"/></g></g></svg>