<svg xmlns="http://www.w3.org/2000/svg" viewBox="0 0 79 79.2"><defs><style>.cls-1{fill:#4776b6;}.cls-2{fill:#fff;}</style></defs><g id="圖層_2" data-name="圖層 2"><g id="社群"><path class="cls-1" d="M73.71,59.68A44.36,44.36,0,0,1,49,78.08c-11.71,2.64-22.63.65-32.36-6.28C.56,60.32-4.42,40.06,4.13,22.17c.43-.92.78-1.87,1.17-2.81C14.25,6,26.82-.37,42.86,0L53.3,2.53a42.71,42.71,0,0,1,21.43,18.9l3.48,10.22C80.29,41.57,78.08,50.8,73.71,59.68ZM38.48,17.87c-8.08.6-15.39,4-19.24,12.47S16.51,46.88,22.62,54a7.58,7.58,0,0,1,2.14,5.45c-.05,2.8,1.38,3.78,3.94,2.37s4.93-1.27,7.61-.85c13.14,2.06,24.48-7,25.48-20.29C62.72,28.42,52.22,17.77,38.48,17.87Z"/><path class="cls-2" d="M38.48,17.87c13.74-.1,24.24,10.55,23.31,22.81C60.79,53.94,49.45,63,36.31,61c-2.68-.42-5.16-.51-7.61.85s-4,.43-3.94-2.37A7.58,7.58,0,0,0,22.62,54c-6.11-7.12-7.23-15.19-3.38-23.66S30.4,18.47,38.48,17.87Zm5.11,28.76a3.57,3.57,0,0,0,2.81-1.69,37.29,37.29,0,0,0,3.27-5.19c.95-2.13,4.43-4.3,2.56-6.18-1.45-1.45-3.62,2-5.57,3.13-1.69,1-2.78,2.72-5.29.95-7.09-5-7.19-4.83-11.91,2.71a13,13,0,0,0-1.37,2.23c-.58,1.53-3.19,3-1.57,4.44s3.11-1,4.22-2.11c3.22-3.11,6.12-3.44,9.29-.05A5.53,5.53,0,0,0,43.59,46.63Z"/><path class="cls-1" d="M43.59,46.63A5.53,5.53,0,0,1,40,44.87c-3.17-3.39-6.07-3.06-9.29.05C29.63,46,28,48.35,26.52,47s1-2.91,1.57-4.44a13,13,0,0,1,1.37-2.23c4.72-7.54,4.82-7.68,11.91-2.71,2.51,1.77,3.6,0,5.29-.95,2-1.11,4.12-4.58,5.57-3.13,1.87,1.88-1.61,4-2.56,6.18a37.29,37.29,0,0,1-3.27,5.19A3.57,3.57,0,0,1,43.59,46.63Z"/></g></g></svg>