<?xml version="1.0" encoding="UTF-8"?><svg id="uuid-f2a9d38c-db24-4273-83bb-96daf69bfd33" xmlns="http://www.w3.org/2000/svg" viewBox="0 0 76 75.77"><defs><style>.uuid-73db81af-76bc-4acf-9039-09435fbc8a61{fill:#a9c945;}.uuid-3a5cad38-500b-486e-8606-5d1348ff51f7{fill:#fff;stroke:#a9c945;stroke-miterlimit:10;}</style></defs><g id="uuid-fd15c6c1-d291-4129-b6c7-e18923a5ad72"><g><path class="uuid-3a5cad38-500b-486e-8606-5d1348ff51f7" d="M1.77,47.9c-.89-4-1.46-8.01-1.22-12.14,.29-4.79,1.46-9.32,3.43-13.67,.2-.43,.52-.82,.5-1.34,1.5-2.32,2.91-4.72,4.66-6.87,.29-.23,.57-.46,.7-.81,.96-.98,1.93-1.96,2.89-2.94,.23-.05,.37-.2,.46-.41,1.07-.84,2.13-1.67,3.2-2.51,3.64-2.31,7.42-4.29,11.63-5.37,10.4-2.69,20.23-1.34,29.5,4.11,.1,.06,.22,.09,.33,.14,4.41,2.82,8.1,6.39,11.15,10.64,2.53,3.95,4.49,8.13,5.53,12.74,1.52,6.76,1.22,13.43-.87,20.02-.19,.61-.37,1.23-.56,1.85-.46,1.04-.92,2.08-1.39,3.12-1.73,3.01-3.55,5.96-5.92,8.54-3.07,3.33-6.6,6.06-10.64,8.13-.35,.18-.76,.27-1,.64-1.01,.52-2.18,.66-3.15,1.3-2.38,.66-4.74,1.39-7.19,1.77-5.75,.88-11.4,.43-16.97-1.2-1.05-.36-2.11-.73-3.16-1.09-2.51-1.16-4.93-2.48-7.27-3.94h0c-1.07-.85-2.15-1.71-3.22-2.56-1.41-1.43-2.82-2.87-4.24-4.3-1.73-2.41-3.42-4.84-4.77-7.49-.4-.9-.79-1.8-1.19-2.7-.05-.25-.05-.53-.3-.7-.06-.18-.12-.36-.18-.55l.04-.1-.08-.08c-.24-.74-.48-1.47-.71-2.21Z"/><path class="uuid-73db81af-76bc-4acf-9039-09435fbc8a61" d="M67.56,38.01c-.01-3.95-2.49-6.95-6.4-7.74-3.49-.71-7.36,1.31-8.72,4.54-1.43,3.4-.35,7.06,2.81,9.2,2.23,1.51,4.68,1.68,7.22,.88,.51-.16,.88-.46,.84-1.04-.02-.38-.2-.71-.61-.82-.45-.12-.87,.04-1.3,.16-3.58,1.01-7.17-1.34-7.49-4.91-.21-2.33,.76-4.13,2.73-5.32,2.15-1.3,4.37-1.2,6.43,.18,1.97,1.31,2.69,3.28,2.49,5.6-.05,.55-.33,.93-.93,.92-.52-.01-.81-.35-.86-.85-.05-.4-.02-.81-.04-1.22-.15-2.24-2.02-3.86-4.29-3.71-2.14,.14-3.83,1.94-3.76,4.02,.08,2.13,1.93,3.79,4.17,3.73,.69-.02,1.39-.11,1.42-.97,.03-.88-.62-1.03-1.35-.98-.2,.01-.41,0-.61-.04-.99-.21-1.69-1.1-1.61-2.01,.08-.98,.97-1.84,1.97-1.81,1.05,.03,1.78,.54,1.98,1.62,.08,.43,.02,.89,.06,1.33,.17,1.76,1.37,2.88,3.04,2.84,1.87-.04,2.82-1.26,2.81-3.62Z"/><path class="uuid-73db81af-76bc-4acf-9039-09435fbc8a61" d="M40.17,37.79h0c0,1.95,0,3.9,0,5.84,0,1.12,.58,1.77,1.7,1.79,2.03,.04,4.06,.03,6.09,0,.94-.01,1.6-.53,1.62-1.47,.02-1.01-.68-1.53-1.64-1.6-.85-.06-1.7-.02-2.56-.02-2.06,0-2.03,0-1.99-2.1,.01-.67,.18-.95,.89-.92,1.13,.05,2.27-.02,3.41,.02,1.06,.04,1.75-.35,1.9-1.43,.12-.86-.61-1.52-1.76-1.58-1.17-.06-2.35-.05-3.53-.02-.7,.02-.96-.25-.9-.92,.03-.36,.04-.73,0-1.09-.1-.77,.25-.98,.97-.95,1.09,.05,2.19,.04,3.29,0,1.21-.04,1.97-.69,1.95-1.58-.03-.95-.71-1.49-1.99-1.5-1.79-.02-3.57-.02-5.36,0-1.59,.01-2.08,.52-2.09,2.14-.02,1.79,0,3.57,0,5.36Z"/><path class="uuid-73db81af-76bc-4acf-9039-09435fbc8a61" d="M34.63,38.86c-.1,.03-.2,.07-.3,.1-.24-.26-.5-.51-.71-.8-1.67-2.19-3.35-4.39-5.01-6.59-.58-.77-1.15-1.54-2.28-1.18-1.18,.38-1.07,1.38-1.07,2.32,0,3.62,0,7.23,0,10.85,0,1.24,.59,1.92,1.58,1.86,1.1-.07,1.53-.74,1.52-1.8-.02-1.91,0-3.82,.02-5.73,0-.33-.19-.82,.25-.96,.44-.14,.56,.37,.76,.64,1.76,2.28,3.51,4.57,5.25,6.87,.53,.7,1.12,1.2,2.05,.9,.93-.3,1.16-1.01,1.12-1.91-.04-1.05-.01-2.11-.01-3.17,0-2.76,0-5.52,0-8.29,0-.97-.53-1.56-1.45-1.64-1.01-.08-1.59,.51-1.7,1.51-.05,.44-.02,.89-.02,1.34,0,1.9,0,3.79,0,5.69Z"/><path class="uuid-73db81af-76bc-4acf-9039-09435fbc8a61" d="M11.56,36.7c0-1.5,0-3.01,0-4.51,0-1.26-.54-1.92-1.54-1.87-1.1,.05-1.56,.7-1.55,1.77,0,3.86,0,7.72,0,11.57,0,1.14,.58,1.74,1.72,1.75,1.95,.02,3.9,.03,5.85,0,1.19-.02,1.79-.57,1.78-1.53,0-.95-.65-1.52-1.8-1.55-1.06-.03-2.12-.07-3.17,.01-.99,.07-1.38-.21-1.32-1.27,.09-1.46,.02-2.92,.02-4.38Z"/><path class="uuid-73db81af-76bc-4acf-9039-09435fbc8a61" d="M22.7,37.91c0-1.91,0-3.82,0-5.72,0-1.18-.62-1.91-1.56-1.9-.94,.01-1.55,.67-1.55,1.8-.02,3.86-.02,7.71,0,11.57,0,1.14,.62,1.78,1.57,1.77,.95-.01,1.53-.66,1.54-1.79,.02-1.91,0-3.82,0-5.72Z"/></g></g></svg>