<?xml version="1.0" encoding="utf-8"?>
<!-- Generator: Adobe Illustrator 26.5.0, SVG Export Plug-In . SVG Version: 6.00 Build 0)  -->
<svg version="1.1" id="圖層_1" xmlns="http://www.w3.org/2000/svg" xmlns:xlink="http://www.w3.org/1999/xlink" x="0px" y="0px"
	 viewBox="0 0 76 76" style="enable-background:new 0 0 76 76;" xml:space="preserve">
<style type="text/css">
	.st0{fill:#FFFFFF;stroke:#A9C945;stroke-miterlimit:10;}
	.st1{fill:#A9C945;}
</style>
<g id="圖層_2_00000012440474283151668350000017119115294009383051_">
	<g id="社群">
		<circle class="st0" cx="38" cy="38" r="37.5"/>
		<path class="st1" d="M38,34.3c0.1,0.1,0.2,0.3,0.3,0.4l9.1,9.1c0.3,0.3,0.7,0.5,1.2,0.4c0.5-0.1,0.8-0.7,0.7-1.2
			c0-0.1-0.1-0.3-0.2-0.4c-0.1-0.1-0.2-0.2-0.2-0.3l-9.9-9.9c-0.3-0.5-1-0.6-1.5-0.3c-0.1,0.1-0.2,0.2-0.3,0.3l-9.9,9.9
			c-0.2,0.2-0.3,0.4-0.4,0.7c-0.1,0.4,0.1,0.9,0.5,1.1c0.4,0.2,0.8,0.2,1.2-0.1c0.1-0.1,0.2-0.2,0.3-0.3l9-9
			C37.8,34.5,37.9,34.4,38,34.3z"/>
	</g>
</g>
</svg>
